# xmcd
# 
# Track frame offsets:
#     150
#     12331
#     28960
#     43662
#     67612
#     77431
#     95421
#     109831
#     127954
#     143555
# 
# Disc length: 2135
# 
# Revision: 0
# Processed by: cddbd v1.5.2PL0 Copyright (c) Steve Scherf et al.
# Submitted via: fre:ac v1.0.17
# 
DISCID=7508550a
DTITLE=Tubie Pushee - Just Can't Believe It
DYEAR=2007
DGENRE=Blues
TTITLE0=Just Can't Believe It
TTITLE1=Share
TTITLE2=Break An Artificial Heart
TTITLE3=A Candle
TTITLE4=709 Blues
TTITLE5=Voices
TTITLE6=Tequila Town
TTITLE7=No Room
TTITLE8=Alibis
TTITLE9=Northstar
EXTD=
EXTT0=
EXTT1=
EXTT2=
EXTT3=
EXTT4=
EXTT5=
EXTT6=
EXTT7=
EXTT8=
EXTT9=
PLAYORDER=
